<svg id="logo" xmlns="http://www.w3.org/2000/svg" viewBox="0 0 139 290" width="100%" height="100%"><path class="grey-fire" d="m96.9 200.7c14.8-35 22.2-87.1 7.4-116.4 0.3 52.5-20.8 37.7-16.8 75.3-40.3-50.1-49.4-93.8-40.7-125.1-25.9 48.1-27.9 100.2-0.3 145.3 15.1 19.8 25.9 56.2 50.5 20.9z" fill="#85817e"/><path d="m16.2 171.6c47.7-98.2 63.2-85.1 49.1-171.2 37.3 74 3.4 100.2 2.4 134.5-0.3 6.4-6 36.7 16.8 38.7-16.5-42 5-87.1 10.8-98.9 2.7 71.6 7.1 72.6 33.1 113.3 24.4 48.4 8 110.2-84.9 100.5-43.4-7.1-56.5-60.5-27.2-117z" class="red-fire" fill="#ce2626"/><path d="m13.4 176.9c0.1-1.5 65.2-24.5 91.1 54.8-1.7-62.9 26.8-62.4 27.2-61.9-34.6 63.9 13.1 94.2-47.4 106.6 28.6-40.4-19.8-80.4-47.4-81.4-15.5 61.2 0.3 65.2 23.9 83.4-29.9 3-68.6-31.9-47.4-101.5zm-22.2 72.3" class="n"/></svg>