<svg preserveAspectRatio="xMidYMin" id="skyline" xmlns="http://www.w3.org/2000/svg" viewBox="0 0 1590 282" min-width="1590" min-height="282"><path class="city" d="m136.6 13.5c-0.8 2.1-0.6 6.6-0.6 9 0 0 11-5 11-5 0 0 0 38 0 38 0 0-22 0-22 0 0 0 0 24 0 24 0 0-20 0-20 0 0 0 0 190 0 190 0 0-98 0-98 0 0 0 0 8 0 8 0 0-7 0-7 0 0 0 1 8 1 8 0 0 0-6 0-6 0 0 9 0 9 0 0 0 0-7 0-7 0 0 98 0 98 0 0 0 0-191 0-191 0 0 20 0 20 0 0 0 0-23 0-23 0 0 48 0 48 0 0 0 0 23 0 23 0 0 20 0 20 0 0 0 0 175 0 175 0 0 80 0 80 0 0 0 18 0 18 0 2 0 4.6 0.1 6-1.6 1.3-1.6 1-5.4 1-7.4 0 0 0-4 0-4 0.2-8.3 3.4-7.6 11-10.4 3.6-1.3 18.1-6.7 21-6.9 2.2-0.1 5.7 0.9 8 1.3 0 0 0-28 0-28 0 0 6 0 6 0 0 0 0-23 0-23 0 0 2.8-1.6 2.8-1.6 0 0 4.2-18.4 4.2-18.4 0 0 1 20 1 20 0 0 5 0 5 0 0 0 0 23 0 23 0 0 4 0 4 0 0 0 0 29 0 29 13.5 0 12.3 2.3 24 5 0 0 0-50 0-50 0 0-4 0-4 0 0 0 0-9 0-9 0 0 28 0 28 0 0 0-2-17-2-17 0 0 13 0 13 0 0 0 0-13 0-13 0 0 18 0 18 0 0 0 0 13 0 13 0 0 14 0 14 0 0 0 0 10 0 10 0 0-5 0-5 0 0 0 0 7 0 7 0 0 25 0 25 0 0 0 0 9 0 9 0 0-5 0-5 0 0 0 0 64 0 64 0 0 45 0 45 0 0 0 0-11 0-11 0 0 18 0 18 0 0 0 0-96 0-96 0 0 91 0 91 0 0 0 0-25 0-25 0 0 41 0 41 0 17.8 0 21.1-11 38-11 0 0 24 0 24 0 10.8 0 13.1 3.3 22 9 3.1 1.9 7.1 4 9 7.1 2.3 3.9 3 9.5 3 13.9 0 0 0 93 0 93 0 0 0 22 0 22 0 2-0.1 4.6 1.6 6 1.6 1.3 5.4 1 7.4 1 0 0 16 0 16 0 0 0 1.6 4 1.6 4 0 0 7.4 1 7.4 1 0 0 15 0 15 0 0 0 6.4-1 6.4-1 0 0 1.6-8 1.6-8 0 0 0-78 0-78 2.9 0 11.1 0.7 13-1.6 1.3-1.7 1-6.3 1-8.4 0 0 37 0 37 0 0 0 0-62 0-62 0 0 7 0 7 0 0 0 1-7.6 1-7.6 0 0 16-8 16-8 0 0 23-8.8 23-8.8 0 0 12 4 12 4 0 0 30 10.4 30 10.4 0 0 0 10 0 10 0 0 6 0 6 0 0 0 0 23 0 23 0 0 3 0 3 0 0 0 0 87 0 87 0 1.7-0.1 5.2 0.6 6.7 1.3 2.6 4.9 2.6 6.4 0.7 1.3-1.6 1-5.4 1-7.4 0 0 0-74 0-74 0 0 3 0 3 0 0 0 0-19 0-19 0 0 29 0 29 0 0 0 0 19 0 19 0 0 20 0 20 0 0 0 0-9 0-9 0 0 17 0 17 0 0 0 0-25 0-25 0 0 21 0 21 0 0 0 1-9 1-9 0 0 0 9 0 9 0 0 5 0 5 0 0 0 0 34 0 34 0 0 5 0 5 0 0 0 0 109 0 109 0 0 7 0 7 0 0 2.9-0.7 11.1 1.6 13 1.6 1.3 5.4 1 7.4 1 0 0 0-128 0-128 0 0 12 0 12 0 0 0 0-17 0-17 0 0 102 0 102 0 0 0 0 17 0 17 0 0 10 0 10 0 0 0 0 42 0 42 0 0 4 0 4 0 0 0 0 54 0 54 0 0 7 0 7 0 0 0 0-11 0-11 0 0 9 0 9 0 0 2.3-0.4 7.7 1 9.4 2 2.5 12.7 1.6 16 1.6 0 0 0-76 0-76 0 0 4 0 4 0 0 0 0-55 0-55 0 0 1.8-20 1.8-20 0 0 3.2-26 3.2-26 0 0 2 42 2 42 0 0 65 0 65 0 0 0 2.8-26 2.8-26 0 0 2.2-17 2.2-17 0 0 1 25 1 25 0 0 1 16 1 16 0 0 0 61 0 61 0 0 4 0 4 0 0 0 0 71 0 71 0 0 8 0 8 0 0 0 1 13.4 1 13.4 0 0 8 1.6 8 1.6 0 0 18 0 18 0 0 0 0-7 0-7 0 0 9 0 9 0 0 0 0-4 0-4 0 0 8 0 8 0 0 10.3-0.5 11 9 11 0 0 0 10 0 10 0 0 9 0 9 0 0 0 0-43 0-43 0 0 4 0 4 0 0 0 0-25 0-25 0 0 5-1.6 5-1.6 0 0 1-20.4 1-20.4 0 0 55 0 55 0 0 0 1 20.4 1 20.4 0 0 5 1.6 5 1.6 0 0 0 25 0 25 0 0 5 0 5 0 0 0 0 43 0 43 0 0 52 0 52 0 0 0 0 12 0 12 0 0 42 0 42 0 0 0 0 18 0 18 0 0 9 0 9 0 0 0 1 6 1 6 0 0 0-8 0-8 0 0-7 0-7 0 0 0 0-19 0-19 0 0-42 0-42 0 0-2.7 0.6-9.2-1.6-11-1.9-1.5-10.6-1-13.4-1 0 0-37 0-37 0 0 0 0-43 0-43 0 0-5 0-5 0 0 0 0-25 0-25 0 0-6 0-6 0 0 0 0-22 0-22 0 0-61 0-61 0 0 0 0 22 0 22 0 0-6 0-6 0 0 0 0 25 0 25 0 0-4 0-4 0 0 0 0 43 0 43 0 0-3 0-3 0 0-9.2 0.4-10-9-10 0 0 0-11 0-11 0 0-14 0-14 0 0 0 0 4 0 4 0 0-9 0-9 0 0 0 0 7 0 7 0 0-21 0-21 0 0 0 0-15 0-15 0 0-9 0-9 0 0 0 0-70 0-70 0 0-3 0-3 0 0 0 0-58 0-58 0 0-1-12-1-12 0 0 0-10 0-10 0 0-1-14-1-14 0 0-2-25-2-25 0 0-2 0-2 0 0 0-4.8 41-4.8 41-0.3 2.8-1 14-2.2 15.7-1.8 2.8-6.1 2.3-9 2.3 0 0-50 0-50 0 0 0-2-33-2-33 0 0-2-26-2-26 0 0-2 0-2 0 0 0-3.2 28-3.2 28 0 0-3.8 39-3.8 39 0 0 0 52 0 52 0 0-4 0-4 0 0 0 0 75 0 75 0 0-11 0-11 0 0 0 0-10 0-10 0 0-15 0-15 0 0 0 0 10 0 10 0 0-2 0-2 0 0 0 0-54 0-54 0 0-3 0-3 0 0 0 0-42 0-42 0 0-10 0-10 0 0 0 0-17 0-17 0 0-108 0-108 0 0 0 0 17 0 17 0 0-12 0-12 0 0 0 0 128 0 128 0 0-3 0-3 0 0 0 0-14 0-14 0 0-7 0-7 0 0 0 0-108 0-108 0 0-5 0-5 0 0 0 0-34 0-34 0 0-5 0-5 0 0 0 0-53 0-53 0 0-3 0-3 0 0 0-4 53-4 53 0 0-21 0-21 0 0 0 0 24 0 24 0 0-17 0-17 0 0 0 0 10 0 10 0 0-14 0-14 0 0 0 0-19 0-19 0 0-12 0-12 0 0 0 0-9 0-9 0 0-6 0-6 0 0 0 0 9 0 9 0 0-8 0-8 0 0 0 0-7 0-7 0 0-4 0-4 0 0 0 0 7 0 7 0 0-5 0-5 0 0 0 0 19 0 19 0 0-3 0-3 0 0 0 0 82 0 82 0 0-2 0-2 0 0 0 0-96 0-96 0 0-3 0-3 0 0 0 0-23 0-23 0 0-6 0-6 0 0-2.2 0.2-5.7-1-7.6-1.9-2.8-14.3-6.7-18-8.1 0 0-25-8.9-25-8.9-4.2-0.6-10.1 2.6-14 4.3-6.5 2.8-23 10.2-29 11.3 0 0 0 9 0 9 0 0-8 0-8 0 0 0 0 62 0 62 0 0-37 0-37 0 0 0 0 10 0 10 0 0-14 0-14 0 0 0 0 87 0 87 0 0-26 0-26 0 0 0 0-5 0-5 0 0-25 0-25 0 0 0 0-123 0-123 0-4.4-0.3-9-3-12.6-1.7-2.4-7.3-5.5-10-7.2-9.3-5.8-11.8-9.2-23-9.2 0 0-28 0-28 0-14.4 0.2-19.9 11-36 11 0 0-43 0-43 0 0 0 0 25 0 25 0 0-69 0-69 0 0 0-15 0-15 0 0 0-6 1.6-6 1.6 0 0-1 7.4-1 7.4 0 0 0 87 0 87 0 0-18 0-18 0 0 0 0 11 0 11 0 0-39 0-39 0 0 0 0-58 0-58 0 0 5 0 5 0 0 0 0-15 0-15 0 0-26-1-26-1 0 0 6 0 6 0 0 0 0-16 0-16 0 0-14 0-14 0 0 0 0-13 0-13 0 0-17 0-17 0 0 0-6 1.6-6 1.6 0 0-1 11.4-1 11.4 0 0-13 0-13 0 0 0 0 16 0 16 0 0 3 1 3 1 0 0-29 0-29 0 0 0 0 15 0 15 0 0 4 0 4 0 0 0 0 43 0 43-7.5-2.5-9.8-3.9-18-4 0 0 0-28 0-28 0 0-4 0-4 0 0 0 0-24 0-24 0 0-5 0-5 0 0 0-2.7-28-2.7-28 0 0-2.3-11-2.3-11 0 0-5 39-5 39 0 0-3 0-3 0 0 0 0 24 0 24 0 0-7 0-7 0 0 0 0 26 0 26-12.9-2.2-26.8 8.8-40 10 0 0 0 20 0 20 0 0-99 0-99 0 0 0 0-174 0-174 0 0-20 0-20 0 0 0 0-24 0-24 0 0-28 0-28 0 0 0 0-51 0-51-4.8 0.7-12.5 4.2-14.4 9zm2.4 5c0.5-6.4 2.8-6.8 8-10 2.1 5.7-3.7 7.7-8 10z" fill="#85817e"/></svg>