<?xml-stylesheet type="text/css" href="style.css"?>
<svg xmlns="http://www.w3.org/2000/svg" 
     viewBox="0 0 1590 346" xmlns:xlink="http://www.w3.org/1999/xlink">

  <path class="city"
        d="M 136.60,23.04
           C 135.80,25.09 136.00,29.66 136.00,32.00
             136.00,32.00 147.00,27.00 147.00,27.00
             147.00,27.00 147.00,65.00 147.00,65.00
             147.00,65.00 125.00,65.00 125.00,65.00
             125.00,65.00 125.00,89.00 125.00,89.00
             125.00,89.00 105.00,89.00 105.00,89.00
             105.00,89.00 105.00,279.00 105.00,279.00
             105.00,279.00 7.00,279.00 7.00,279.00
             7.00,279.00 7.00,287.00 7.00,287.00
             7.00,287.00 0.00,287.00 0.00,287.00
             0.00,287.00 1.00,295.00 1.00,295.00
             1.00,295.00 1.00,289.00 1.00,289.00
             1.00,289.00 10.00,289.00 10.00,289.00
             10.00,289.00 10.00,282.00 10.00,282.00
             10.00,282.00 108.00,282.00 108.00,282.00
             108.00,282.00 108.00,91.00 108.00,91.00
             108.00,91.00 128.00,91.00 128.00,91.00
             128.00,91.00 128.00,68.00 128.00,68.00
             128.00,68.00 176.00,68.00 176.00,68.00
             176.00,68.00 176.00,91.00 176.00,91.00
             176.00,91.00 196.00,91.00 196.00,91.00
             196.00,91.00 196.00,266.00 196.00,266.00
             196.00,266.00 276.00,266.00 276.00,266.00
             276.00,266.00 294.00,266.00 294.00,266.00
             295.95,265.96 298.63,266.10 299.98,264.40
             301.23,262.81 301.00,258.99 301.00,257.00
             301.00,257.00 301.00,253.00 301.00,253.00
             301.16,244.72 304.39,245.42 312.00,242.58
             315.60,241.23 330.10,235.84 333.00,235.68
             335.16,235.56 338.73,236.55 341.00,237.00
             341.00,237.00 341.00,209.00 341.00,209.00
             341.00,209.00 347.00,209.00 347.00,209.00
             347.00,209.00 347.00,186.00 347.00,186.00
             347.00,186.00 349.83,184.43 349.83,184.43
             349.83,184.43 354.00,166.00 354.00,166.00
             354.00,166.00 355.00,186.00 355.00,186.00
             355.00,186.00 360.00,186.00 360.00,186.00
             360.00,186.00 360.00,209.00 360.00,209.00
             360.00,209.00 364.00,209.00 364.00,209.00
             364.00,209.00 364.00,238.00 364.00,238.00
             377.45,238.01 376.31,240.33 388.00,243.00
             388.00,243.00 388.00,193.00 388.00,193.00
             388.00,193.00 384.00,193.00 384.00,193.00
             384.00,193.00 384.00,184.00 384.00,184.00
             384.00,184.00 412.00,184.00 412.00,184.00
             412.00,184.00 410.00,167.00 410.00,167.00
             410.00,167.00 423.00,167.00 423.00,167.00
             423.00,167.00 423.00,154.00 423.00,154.00
             423.00,154.00 441.00,154.00 441.00,154.00
             441.00,154.00 441.00,167.00 441.00,167.00
             441.00,167.00 455.00,167.00 455.00,167.00
             455.00,167.00 455.00,177.00 455.00,177.00
             455.00,177.00 450.00,177.00 450.00,177.00
             450.00,177.00 450.00,184.00 450.00,184.00
             450.00,184.00 475.00,184.00 475.00,184.00
             475.00,184.00 475.00,193.00 475.00,193.00
             475.00,193.00 470.00,193.00 470.00,193.00
             470.00,193.00 470.00,257.00 470.00,257.00
             470.00,257.00 515.00,257.00 515.00,257.00
             515.00,257.00 515.00,246.00 515.00,246.00
             515.00,246.00 533.00,246.00 533.00,246.00
             533.00,246.00 533.00,150.00 533.00,150.00
             533.00,150.00 624.00,150.00 624.00,150.00
             624.00,150.00 624.00,125.00 624.00,125.00
             624.00,125.00 665.00,125.00 665.00,125.00
             682.75,124.97 686.09,114.03 703.00,114.00
             703.00,114.00 727.00,114.00 727.00,114.00
             737.78,114.02 740.05,117.33 749.00,122.95
             752.07,124.88 756.11,126.91 757.99,130.08
             760.32,133.98 760.99,139.57 761.00,144.00
             761.00,144.00 761.00,237.00 761.00,237.00
             761.00,237.00 761.00,259.00 761.00,259.00
             761.04,260.95 760.90,263.63 762.60,264.98
             764.19,266.23 768.01,266.00 770.00,266.00
             770.00,266.00 786.00,266.00 786.00,266.00
             786.00,266.00 787.60,269.98 787.60,269.98
             787.60,269.98 795.00,271.00 795.00,271.00
             795.00,271.00 810.00,271.00 810.00,271.00
             810.00,271.00 816.40,269.98 816.40,269.98
             816.40,269.98 818.00,262.00 818.00,262.00
             818.00,262.00 818.00,184.00 818.00,184.00
             820.94,184.00 829.13,184.73 830.98,182.40
             832.30,180.73 832.00,176.14 832.00,174.00
             832.00,174.00 869.00,174.00 869.00,174.00
             869.00,174.00 869.00,112.00 869.00,112.00
             869.00,112.00 876.00,112.00 876.00,112.00
             876.00,112.00 877.02,104.41 877.02,104.41
             877.02,104.41 893.00,96.42 893.00,96.42
             893.00,96.42 916.00,87.59 916.00,87.59
             916.00,87.59 928.00,91.58 928.00,91.58
             928.00,91.58 958.00,102.00 958.00,102.00
             958.00,102.00 958.00,112.00 958.00,112.00
             958.00,112.00 964.00,112.00 964.00,112.00
             964.00,112.00 964.00,135.00 964.00,135.00
             964.00,135.00 967.00,135.00 967.00,135.00
             967.00,135.00 967.00,222.00 967.00,222.00
             967.00,223.71 966.87,227.21 967.60,228.69
             968.85,231.24 972.45,231.31 973.98,229.40
             975.23,227.82 975.00,223.98 975.00,222.00
             975.00,222.00 975.00,148.00 975.00,148.00
             975.00,148.00 978.00,148.00 978.00,148.00
             978.00,148.00 978.00,129.00 978.00,129.00
             978.00,129.00 1007.00,129.00 1007.00,129.00
             1007.00,129.00 1007.00,148.00 1007.00,148.00
             1007.00,148.00 1027.00,148.00 1027.00,148.00
             1027.00,148.00 1027.00,139.00 1027.00,139.00
             1027.00,139.00 1044.00,139.00 1044.00,139.00
             1044.00,139.00 1044.00,114.00 1044.00,114.00
             1044.00,114.00 1065.00,114.00 1065.00,114.00
             1065.00,114.00 1066.00,105.00 1066.00,105.00
             1066.00,105.00 1066.00,114.00 1066.00,114.00
             1066.00,114.00 1071.00,114.00 1071.00,114.00
             1071.00,114.00 1071.00,148.00 1071.00,148.00
             1071.00,148.00 1076.00,148.00 1076.00,148.00
             1076.00,148.00 1076.00,257.00 1076.00,257.00
             1076.00,257.00 1083.00,257.00 1083.00,257.00
             1083.00,259.94 1082.27,268.13 1084.60,269.98
             1086.19,271.24 1090.01,270.99 1092.00,271.00
             1092.00,271.00 1092.00,143.00 1092.00,143.00
             1092.00,143.00 1104.00,143.00 1104.00,143.00
             1104.00,143.00 1104.00,126.00 1104.00,126.00
             1104.00,126.00 1206.00,126.00 1206.00,126.00
             1206.00,126.00 1206.00,143.00 1206.00,143.00
             1206.00,143.00 1216.00,143.00 1216.00,143.00
             1216.00,143.00 1216.00,185.00 1216.00,185.00
             1216.00,185.00 1220.00,185.00 1220.00,185.00
             1220.00,185.00 1220.00,239.00 1220.00,239.00
             1220.00,239.00 1227.00,239.00 1227.00,239.00
             1227.00,239.00 1227.00,228.00 1227.00,228.00
             1227.00,228.00 1236.00,228.00 1236.00,228.00
             1236.00,230.28 1235.64,235.66 1237.02,237.40
             1238.98,239.88 1249.71,239.00 1253.00,239.00
             1253.00,239.00 1253.00,163.00 1253.00,163.00
             1253.00,163.00 1257.00,163.00 1257.00,163.00
             1257.00,163.00 1257.00,108.00 1257.00,108.00
             1257.00,108.00 1258.84,88.00 1258.84,88.00
             1258.84,88.00 1262.00,62.00 1262.00,62.00
             1262.00,62.00 1264.00,104.00 1264.00,104.00
             1264.00,104.00 1329.00,104.00 1329.00,104.00
             1329.00,104.00 1331.83,78.00 1331.83,78.00
             1331.83,78.00 1334.00,61.00 1334.00,61.00
             1334.00,61.00 1335.00,86.00 1335.00,86.00
             1335.00,86.00 1336.00,102.00 1336.00,102.00
             1336.00,102.00 1336.00,163.00 1336.00,163.00
             1336.00,163.00 1340.00,163.00 1340.00,163.00
             1340.00,163.00 1340.00,234.00 1340.00,234.00
             1340.00,234.00 1348.00,234.00 1348.00,234.00
             1348.00,234.00 1349.02,247.40 1349.02,247.40
             1349.02,247.40 1357.00,249.00 1357.00,249.00
             1357.00,249.00 1375.00,249.00 1375.00,249.00
             1375.00,249.00 1375.00,242.00 1375.00,242.00
             1375.00,242.00 1384.00,242.00 1384.00,242.00
             1384.00,242.00 1384.00,238.00 1384.00,238.00
             1384.00,238.00 1392.00,238.00 1392.00,238.00
             1392.00,248.25 1391.45,248.96 1401.00,249.00
             1401.00,249.00 1401.00,259.00 1401.00,259.00
             1401.00,259.00 1410.00,259.00 1410.00,259.00
             1410.00,259.00 1410.00,216.00 1410.00,216.00
             1410.00,216.00 1414.00,216.00 1414.00,216.00
             1414.00,216.00 1414.00,191.00 1414.00,191.00
             1414.00,191.00 1418.98,189.40 1418.98,189.40
             1418.98,189.40 1420.00,169.00 1420.00,169.00
             1420.00,169.00 1475.00,169.00 1475.00,169.00
             1475.00,169.00 1476.02,189.40 1476.02,189.40
             1476.02,189.40 1481.00,191.00 1481.00,191.00
             1481.00,191.00 1481.00,216.00 1481.00,216.00
             1481.00,216.00 1486.00,216.00 1486.00,216.00
             1486.00,216.00 1486.00,259.00 1486.00,259.00
             1486.00,259.00 1538.00,259.00 1538.00,259.00
             1538.00,259.00 1538.00,271.00 1538.00,271.00
             1538.00,271.00 1580.00,271.00 1580.00,271.00
             1580.00,271.00 1580.00,289.00 1580.00,289.00
             1580.00,289.00 1589.00,289.00 1589.00,289.00
             1589.00,289.00 1590.00,295.00 1590.00,295.00
             1590.00,295.00 1590.00,287.00 1590.00,287.00
             1590.00,287.00 1583.00,287.00 1583.00,287.00
             1583.00,287.00 1583.00,268.00 1583.00,268.00
             1583.00,268.00 1541.00,268.00 1541.00,268.00
             1541.00,265.29 1541.63,258.78 1539.40,257.02
             1537.48,255.50 1528.77,256.00 1526.00,256.00
             1526.00,256.00 1489.00,256.00 1489.00,256.00
             1489.00,256.00 1489.00,213.00 1489.00,213.00
             1489.00,213.00 1484.00,213.00 1484.00,213.00
             1484.00,213.00 1484.00,188.00 1484.00,188.00
             1484.00,188.00 1478.00,188.00 1478.00,188.00
             1478.00,188.00 1478.00,166.00 1478.00,166.00
             1478.00,166.00 1417.00,166.00 1417.00,166.00
             1417.00,166.00 1417.00,188.00 1417.00,188.00
             1417.00,188.00 1411.00,188.00 1411.00,188.00
             1411.00,188.00 1411.00,213.00 1411.00,213.00
             1411.00,213.00 1407.00,213.00 1407.00,213.00
             1407.00,213.00 1407.00,256.00 1407.00,256.00
             1407.00,256.00 1404.00,256.00 1404.00,256.00
             1403.99,246.79 1404.35,246.04 1395.00,246.00
             1395.00,246.00 1395.00,235.00 1395.00,235.00
             1395.00,235.00 1381.00,235.00 1381.00,235.00
             1381.00,235.00 1381.00,239.00 1381.00,239.00
             1381.00,239.00 1372.00,239.00 1372.00,239.00
             1372.00,239.00 1372.00,246.00 1372.00,246.00
             1372.00,246.00 1351.00,246.00 1351.00,246.00
             1351.00,246.00 1351.00,231.00 1351.00,231.00
             1351.00,231.00 1342.00,231.00 1342.00,231.00
             1342.00,231.00 1342.00,161.00 1342.00,161.00
             1342.00,161.00 1339.00,161.00 1339.00,161.00
             1339.00,161.00 1339.00,103.00 1339.00,103.00
             1339.00,103.00 1338.00,91.00 1338.00,91.00
             1338.00,91.00 1338.00,81.00 1338.00,81.00
             1338.00,81.00 1337.00,67.00 1337.00,67.00
             1337.00,67.00 1335.00,42.00 1335.00,42.00
             1335.00,42.00 1333.00,42.00 1333.00,42.00
             1333.00,42.00 1328.16,83.00 1328.16,83.00
             1327.87,85.77 1327.11,96.99 1325.98,98.69
             1324.13,101.45 1319.92,100.99 1317.00,101.00
             1317.00,101.00 1267.00,101.00 1267.00,101.00
             1267.00,101.00 1265.00,68.00 1265.00,68.00
             1265.00,68.00 1263.00,42.00 1263.00,42.00
             1263.00,42.00 1261.00,42.00 1261.00,42.00
             1261.00,42.00 1257.83,70.00 1257.83,70.00
             1257.83,70.00 1254.00,109.00 1254.00,109.00
             1254.00,109.00 1254.00,161.00 1254.00,161.00
             1254.00,161.00 1250.00,161.00 1250.00,161.00
             1250.00,161.00 1250.00,236.00 1250.00,236.00
             1250.00,236.00 1239.00,236.00 1239.00,236.00
             1239.00,236.00 1239.00,226.00 1239.00,226.00
             1239.00,226.00 1224.00,226.00 1224.00,226.00
             1224.00,226.00 1224.00,236.00 1224.00,236.00
             1224.00,236.00 1222.00,236.00 1222.00,236.00
             1222.00,236.00 1222.00,182.00 1222.00,182.00
             1222.00,182.00 1219.00,182.00 1219.00,182.00
             1219.00,182.00 1219.00,140.00 1219.00,140.00
             1219.00,140.00 1209.00,140.00 1209.00,140.00
             1209.00,140.00 1209.00,123.00 1209.00,123.00
             1209.00,123.00 1101.00,123.00 1101.00,123.00
             1101.00,123.00 1101.00,140.00 1101.00,140.00
             1101.00,140.00 1089.00,140.00 1089.00,140.00
             1089.00,140.00 1089.00,268.00 1089.00,268.00
             1089.00,268.00 1086.00,268.00 1086.00,268.00
             1086.00,268.00 1086.00,254.00 1086.00,254.00
             1086.00,254.00 1079.00,254.00 1079.00,254.00
             1079.00,254.00 1079.00,146.00 1079.00,146.00
             1079.00,146.00 1074.00,146.00 1074.00,146.00
             1074.00,146.00 1074.00,112.00 1074.00,112.00
             1074.00,112.00 1069.00,112.00 1069.00,112.00
             1069.00,112.00 1069.00,59.00 1069.00,59.00
             1069.00,59.00 1066.00,59.00 1066.00,59.00
             1066.00,59.00 1062.00,112.00 1062.00,112.00
             1062.00,112.00 1041.00,112.00 1041.00,112.00
             1041.00,112.00 1041.00,136.00 1041.00,136.00
             1041.00,136.00 1024.00,136.00 1024.00,136.00
             1024.00,136.00 1024.00,146.00 1024.00,146.00
             1024.00,146.00 1010.00,146.00 1010.00,146.00
             1010.00,146.00 1010.00,127.00 1010.00,127.00
             1010.00,127.00 998.00,127.00 998.00,127.00
             998.00,127.00 998.00,118.00 998.00,118.00
             998.00,118.00 992.00,118.00 992.00,118.00
             992.00,118.00 992.00,127.00 992.00,127.00
             992.00,127.00 984.00,127.00 984.00,127.00
             984.00,127.00 984.00,120.00 984.00,120.00
             984.00,120.00 980.00,120.00 980.00,120.00
             980.00,120.00 980.00,127.00 980.00,127.00
             980.00,127.00 975.00,127.00 975.00,127.00
             975.00,127.00 975.00,146.00 975.00,146.00
             975.00,146.00 972.00,146.00 972.00,146.00
             972.00,146.00 972.00,228.00 972.00,228.00
             972.00,228.00 970.00,228.00 970.00,228.00
             970.00,228.00 970.00,132.00 970.00,132.00
             970.00,132.00 967.00,132.00 967.00,132.00
             967.00,132.00 967.00,109.00 967.00,109.00
             967.00,109.00 961.00,109.00 961.00,109.00
             960.99,106.78 961.23,103.30 959.98,101.41
             958.11,98.58 945.71,94.69 942.00,93.32
             942.00,93.32 917.00,84.42 917.00,84.42
             912.79,83.82 906.92,87.03 903.00,88.72
             896.45,91.54 880.02,98.91 874.00,100.00
             874.00,100.00 874.00,109.00 874.00,109.00
             874.00,109.00 866.00,109.00 866.00,109.00
             866.00,109.00 866.00,171.00 866.00,171.00
             866.00,171.00 829.00,171.00 829.00,171.00
             829.00,171.00 829.00,181.00 829.00,181.00
             829.00,181.00 815.00,181.00 815.00,181.00
             815.00,181.00 815.00,268.00 815.00,268.00
             815.00,268.00 789.00,268.00 789.00,268.00
             789.00,268.00 789.00,263.00 789.00,263.00
             789.00,263.00 764.00,263.00 764.00,263.00
             764.00,263.00 764.00,140.00 764.00,140.00
             763.99,135.64 763.73,131.04 761.03,127.36
             759.28,124.98 753.68,121.85 751.00,120.19
             741.71,114.43 739.24,111.02 728.00,111.00
             728.00,111.00 700.00,111.00 700.00,111.00
             685.60,111.20 680.06,121.97 664.00,122.00
             664.00,122.00 621.00,122.00 621.00,122.00
             621.00,122.00 621.00,147.00 621.00,147.00
             621.00,147.00 552.00,147.00 552.00,147.00
             552.00,147.00 537.00,147.00 537.00,147.00
             537.00,147.00 531.02,148.60 531.02,148.60
             531.02,148.60 530.00,156.00 530.00,156.00
             530.00,156.00 530.00,243.00 530.00,243.00
             530.00,243.00 512.00,243.00 512.00,243.00
             512.00,243.00 512.00,254.00 512.00,254.00
             512.00,254.00 473.00,254.00 473.00,254.00
             473.00,254.00 473.00,196.00 473.00,196.00
             473.00,196.00 478.00,196.00 478.00,196.00
             478.00,196.00 478.00,181.00 478.00,181.00
             478.00,181.00 452.00,180.00 452.00,180.00
             452.00,180.00 458.00,180.00 458.00,180.00
             458.00,180.00 458.00,164.00 458.00,164.00
             458.00,164.00 444.00,164.00 444.00,164.00
             444.00,164.00 444.00,151.00 444.00,151.00
             444.00,151.00 427.00,151.00 427.00,151.00
             427.00,151.00 421.02,152.60 421.02,152.60
             421.02,152.60 420.00,164.00 420.00,164.00
             420.00,164.00 407.00,164.00 407.00,164.00
             407.00,164.00 407.00,180.00 407.00,180.00
             407.00,180.00 410.00,181.00 410.00,181.00
             410.00,181.00 381.00,181.00 381.00,181.00
             381.00,181.00 381.00,196.00 381.00,196.00
             381.00,196.00 385.00,196.00 385.00,196.00
             385.00,196.00 385.00,239.00 385.00,239.00
             377.46,236.49 375.16,235.07 367.00,235.00
             367.00,235.00 367.00,207.00 367.00,207.00
             367.00,207.00 363.00,207.00 363.00,207.00
             363.00,207.00 363.00,183.00 363.00,183.00
             363.00,183.00 358.00,183.00 358.00,183.00
             358.00,183.00 355.28,155.00 355.28,155.00
             355.28,155.00 353.00,144.00 353.00,144.00
             353.00,144.00 348.00,183.00 348.00,183.00
             348.00,183.00 345.00,183.00 345.00,183.00
             345.00,183.00 345.00,207.00 345.00,207.00
             345.00,207.00 338.00,207.00 338.00,207.00
             338.00,207.00 338.00,233.00 338.00,233.00
             325.05,230.81 311.24,241.81 298.00,243.00
             298.00,243.00 298.00,263.00 298.00,263.00
             298.00,263.00 199.00,263.00 199.00,263.00
             199.00,263.00 199.00,89.00 199.00,89.00
             199.00,89.00 179.00,89.00 179.00,89.00
             179.00,89.00 179.00,65.00 179.00,65.00
             179.00,65.00 151.00,65.00 151.00,65.00
             151.00,65.00 151.00,14.00 151.00,14.00
             146.19,14.67 138.48,18.22 136.60,23.04 Z
           M 139.00,28.00
           C 139.53,21.57 141.77,21.17 147.00,18.00
             149.09,23.74 143.29,25.70 139.00,28.00 Z" />
</svg>
