<?xml version="1.0" standalone="no"?>
<!DOCTYPE svg PUBLIC "-//W3C//DTD SVG 20010904//EN"
 "http://www.w3.org/TR/2001/REC-SVG-20010904/DTD/svg10.dtd">
<svg version="1.0" xmlns="http://www.w3.org/2000/svg"
 width="1192.000000pt" height="1192.000000pt" viewBox="0 0 1192.000000 1192.000000"
 preserveAspectRatio="xMidYMid meet">
<metadata>
Created by potrace 1.11, written by Peter Selinger 2001-2013
</metadata>
<g transform="translate(0.000000,1192.000000) scale(0.100000,-0.100000)"
fill="#000000" stroke="none">
<path d="M5856 11778 c7 -35 16 -79 19 -98 7 -44 13 -78 20 -110 3 -14 8 -41
11 -60 3 -19 7 -42 9 -50 3 -8 7 -33 10 -55 3 -22 10 -62 15 -90 9 -46 14 -78
25 -160 2 -16 9 -59 15 -95 6 -36 13 -78 15 -95 2 -16 6 -46 9 -65 7 -49 16
-119 21 -166 6 -53 14 -126 20 -176 27 -235 37 -617 22 -862 -4 -65 -9 -121
-11 -125 -2 -3 -7 -35 -11 -71 -11 -98 -20 -148 -51 -280 -36 -153 -117 -387
-170 -491 -13 -27 -23 -49 -21 -49 3 0 -58 -121 -144 -287 -18 -35 -37 -63
-42 -63 -4 0 -5 -4 -2 -10 3 -5 1 -10 -4 -10 -6 0 -11 -6 -11 -13 0 -7 -15
-36 -34 -65 -19 -28 -32 -52 -28 -52 4 0 2 -4 -3 -8 -6 -4 -40 -54 -75 -112
-35 -58 -72 -114 -82 -124 -10 -11 -18 -23 -18 -27 0 -5 -11 -25 -25 -46 -14
-21 -31 -46 -38 -57 -6 -10 -20 -29 -29 -41 -10 -13 -18 -27 -18 -31 0 -4 -7
-16 -16 -26 -16 -17 -17 -17 -30 8 -8 15 -14 35 -14 45 0 11 -4 19 -10 19 -5
0 -10 6 -10 14 0 7 -13 45 -29 85 -17 39 -27 71 -24 71 3 0 1 6 -4 13 -6 6
-18 37 -27 67 -10 30 -20 62 -23 70 -3 8 -7 20 -9 25 -2 6 -15 48 -29 95 -15
47 -28 92 -30 100 -39 159 -55 231 -60 259 -3 19 -8 37 -10 40 -2 4 -6 27 -10
51 -3 25 -8 52 -10 60 -2 8 -7 40 -10 70 -4 30 -9 69 -12 85 -24 150 -34 487
-19 665 13 164 13 163 32 263 4 17 8 43 9 57 1 14 8 48 15 75 6 28 13 59 16
70 3 17 23 92 51 190 5 18 -35 -42 -78 -115 -8 -14 -16 -27 -19 -30 -3 -3 -13
-21 -24 -40 -10 -19 -29 -53 -41 -75 -120 -213 -242 -457 -325 -650 -5 -11
-23 -50 -39 -88 -16 -37 -30 -70 -31 -72 -2 -11 -14 -45 -46 -128 -19 -48 -36
-95 -38 -105 -1 -9 -6 -24 -9 -32 -3 -8 -18 -51 -32 -95 -14 -44 -31 -93 -36
-110 -6 -16 -12 -37 -14 -45 -2 -8 -13 -51 -25 -95 -29 -106 -69 -271 -76
-314 -3 -18 -8 -43 -10 -55 -6 -32 -24 -128 -28 -156 -9 -51 -31 -214 -41
-301 -25 -230 -25 -744 1 -929 9 -66 15 -115 18 -155 2 -22 6 -51 10 -65 3
-14 8 -38 10 -55 10 -64 25 -148 30 -163 3 -10 7 -33 10 -52 4 -19 11 -53 17
-75 18 -70 21 -105 10 -105 -6 0 -11 -5 -11 -11 0 -6 -13 -31 -30 -56 -16 -24
-30 -47 -30 -50 0 -3 -11 -21 -25 -39 -14 -18 -25 -35 -25 -38 0 -9 -84 -141
-92 -144 -5 -2 -6 -7 -3 -12 3 -5 -1 -15 -9 -23 -9 -8 -25 -32 -36 -53 -12
-22 -30 -52 -41 -69 -10 -16 -24 -41 -31 -55 -7 -14 -24 -43 -39 -65 -14 -22
-79 -132 -144 -245 -64 -113 -122 -208 -127 -211 -6 -4 -49 -16 -97 -28 -149
-37 -189 -55 -194 -86 -1 -11 -5 -24 -8 -30 -6 -9 -33 -93 -49 -150 -2 -5 -9
-23 -16 -40 -7 -16 -13 -33 -13 -37 -1 -5 -1 -9 -2 -10 0 -2 -2 -10 -4 -18 -3
-15 -26 -96 -44 -160 -6 -19 -13 -46 -16 -60 -3 -14 -12 -54 -20 -90 -27 -120
-27 -119 -39 -195 -4 -22 -11 -62 -16 -90 -5 -27 -12 -70 -14 -95 -5 -42 -12
-92 -21 -147 -2 -13 -6 -26 -9 -31 -3 -5 -8 -24 -11 -43 -3 -19 -10 -45 -15
-59 -8 -22 -16 -51 -35 -135 -4 -19 -19 -86 -30 -145 -3 -14 -8 -41 -11 -60
-2 -19 -9 -57 -14 -85 -6 -27 -12 -75 -14 -105 -3 -30 -5 -55 -6 -55 -8 0 -14
-154 -14 -345 0 -205 5 -322 18 -390 3 -14 7 -43 10 -65 19 -150 71 -350 138
-525 56 -145 219 -444 251 -458 4 -2 7 -9 7 -15 0 -7 15 -29 33 -49 17 -20 43
-51 57 -69 41 -53 191 -202 260 -258 36 -29 74 -60 84 -68 38 -30 214 -143
224 -143 6 0 12 -3 14 -7 4 -11 183 -97 261 -127 82 -32 101 -39 107 -41 3 -1
12 -4 20 -7 78 -30 308 -88 410 -103 14 -3 36 -7 50 -10 14 -3 52 -7 85 -10
33 -3 85 -7 115 -10 63 -5 211 -14 350 -21 208 -10 734 -4 890 10 36 3 99 8
140 11 41 3 93 8 115 11 22 2 60 7 85 10 25 3 56 6 70 8 14 2 50 7 80 11 30 4
57 8 60 10 3 2 30 6 60 10 30 3 75 11 100 17 25 5 54 11 65 14 153 30 232 48
240 55 5 5 19 9 32 9 12 0 32 4 45 9 13 5 43 14 68 21 25 7 75 23 113 36 37
13 68 23 70 23 1 0 16 5 32 11 17 7 35 13 40 14 6 2 24 8 40 15 17 7 59 24 95
38 36 14 86 36 112 49 27 14 49 23 50 23 3 -2 55 25 183 96 112 61 306 196
408 283 53 46 241 236 267 272 14 18 30 38 35 44 45 51 175 246 175 264 0 5 7
15 15 22 8 7 15 21 15 30 0 10 3 20 8 22 6 3 24 40 87 183 8 17 17 44 21 60 4
17 10 35 14 40 4 6 10 21 13 35 3 14 13 52 22 85 9 33 18 69 21 80 2 11 6 31
9 45 14 68 20 108 33 220 14 132 7 471 -14 600 -8 57 -24 143 -29 168 -3 12
-7 32 -10 45 -16 75 -27 124 -32 137 -3 8 -7 22 -9 30 -11 60 -104 323 -151
430 -42 95 -135 284 -157 319 -14 21 -22 42 -19 45 4 3 1 6 -5 6 -6 0 -14 9
-17 21 -5 15 -147 211 -207 284 -58 71 -79 107 -72 128 8 26 82 168 130 248
19 31 34 62 34 68 0 6 4 11 8 11 5 0 16 15 25 33 9 17 26 47 38 66 l23 34 -75
-6 c-41 -4 -85 -10 -99 -13 -88 -22 -163 -50 -246 -91 -83 -41 -97 -45 -105
-32 -7 14 -68 98 -96 134 -4 6 -24 33 -42 60 -19 28 -37 52 -40 55 -19 17
-122 185 -123 198 0 16 7 61 18 116 4 22 10 64 19 139 3 23 7 53 10 67 2 14 7
45 9 70 3 25 7 70 11 100 22 204 29 351 28 625 0 138 -3 273 -7 300 -4 28 -9
77 -11 110 -4 72 -26 235 -39 291 -2 12 -7 39 -10 60 -14 87 -81 347 -106 409
-13 33 -23 59 -25 70 -6 23 -87 204 -115 255 -16 30 -34 66 -40 80 -15 33 -31
8 -20 -31 5 -15 6 -30 3 -32 -2 -3 -6 -72 -8 -154 -3 -136 -8 -210 -20 -318
-7 -64 -17 -138 -21 -160 -2 -10 -6 -35 -9 -55 -3 -20 -7 -45 -10 -55 -2 -11
-11 -54 -20 -95 -9 -41 -28 -111 -43 -155 -14 -44 -27 -85 -28 -91 -2 -14 -26
-69 -62 -144 -14 -30 -26 -58 -26 -62 -1 -3 -4 -9 -8 -13 -3 -4 -10 15 -14 42
-3 26 -8 57 -11 68 -10 49 -12 63 -18 110 -3 28 -8 64 -11 80 -5 31 -9 64 -19
155 -3 30 -8 71 -11 90 -6 42 -13 114 -19 189 -2 30 -7 81 -10 115 -16 178
-22 248 -30 401 -5 100 -11 194 -20 330 -3 50 -8 140 -11 200 -11 258 -15 288
-30 231 -3 -14 -9 -26 -13 -26 -4 0 -13 -16 -20 -35 -7 -19 -17 -35 -22 -35
-5 0 -9 -9 -9 -20 0 -11 -4 -20 -8 -20 -5 0 -16 -19 -27 -42 -10 -24 -21 -45
-24 -48 -11 -9 -201 -403 -201 -416 0 -2 -11 -27 -24 -56 -13 -29 -39 -89 -56
-133 -18 -44 -37 -91 -43 -105 -6 -14 -11 -27 -12 -30 -6 -22 -42 -127 -80
-240 -40 -117 -115 -389 -130 -469 -3 -14 -7 -36 -10 -48 -13 -58 -16 -72 -26
-133 -7 -36 -13 -74 -14 -85 -1 -11 -3 -20 -5 -20 -2 0 -11 -88 -14 -132 0
-13 -3 -23 -6 -23 -3 0 -6 -15 -6 -33 -1 -17 -5 -84 -10 -147 -13 -183 -8
-525 10 -650 2 -14 7 -49 11 -79 3 -30 10 -74 14 -98 5 -24 7 -43 4 -43 -2 0
-17 13 -33 30 -16 16 -26 30 -23 30 4 0 0 6 -8 13 -9 6 -33 35 -55 62 -21 28
-41 52 -45 55 -5 5 -114 142 -131 165 -5 5 -27 35 -51 65 -24 30 -54 71 -67
90 -13 19 -27 37 -30 40 -3 3 -30 39 -60 80 -57 79 -56 77 -44 195 1 17 5 59
8 95 5 63 10 98 21 150 4 14 8 43 11 65 13 102 150 536 213 680 23 51 241 638
245 658 1 6 15 50 30 97 15 47 29 92 31 100 2 8 20 76 39 150 19 74 37 151 40
170 34 187 38 220 54 395 9 101 7 502 -2 575 -4 30 -9 73 -11 95 -10 93 -31
213 -71 395 -9 41 -17 80 -18 87 -1 7 -5 16 -9 19 -4 4 -7 16 -7 27 0 12 -4
34 -10 51 -5 17 -21 69 -36 116 -62 204 -154 442 -260 680 -44 99 -223 451
-246 482 -10 16 -17 28 -13 28 3 0 -7 19 -22 43 -16 23 -34 53 -41 67 -47 94
-61 102 -46 28z"/>
</g>
</svg>
